<svg xmlns="http://www.w3.org/2000/svg" width="1500" height="1040" viewBox="0 0 1500 1040">
<rect width="100%" height="100%" fill="#fbfcfe" />
<rect x="55" y="120" width="1390" height="350" rx="18" fill="#f7f9fc" />
<rect x="55" y="560" width="1390" height="350" rx="18" fill="#f7f9fc" />
<text x="95" y="67" font-size="30" font-family="DejaVu Sans, Arial, sans-serif" fill="#2b3442">MQ Benchmark Comparison</text>
<text x="115" y="160" font-size="18" font-weight="700" font-family="DejaVu Sans, Arial, sans-serif" fill="#2b3442">Concurrency Sweep</text>
<text x="115" y="182" font-size="14" font-family="DejaVu Sans, Arial, sans-serif" fill="#6b778c">Throughput (MB/s)</text>
<text x="115" y="600" font-size="18" font-weight="700" font-family="DejaVu Sans, Arial, sans-serif" fill="#2b3442">Payload Sweep</text>
<text x="115" y="622" font-size="14" font-family="DejaVu Sans, Arial, sans-serif" fill="#6b778c">Throughput (MB/s)</text>
<line x1="170" y1="415.0" x2="1380" y2="415.0" stroke="#b9c5d8" stroke-width="1" />
<text x="156" y="419.0" text-anchor="end" font-size="12" font-family="DejaVu Sans, Arial, sans-serif" fill="#6b778c">0</text>
<line x1="170" y1="370.0" x2="1380" y2="370.0" stroke="#b9c5d8" stroke-width="1" />
<text x="156" y="374.0" text-anchor="end" font-size="12" font-family="DejaVu Sans, Arial, sans-serif" fill="#6b778c">11,600</text>
<line x1="170" y1="325.0" x2="1380" y2="325.0" stroke="#b9c5d8" stroke-width="1" />
<text x="156" y="329.0" text-anchor="end" font-size="12" font-family="DejaVu Sans, Arial, sans-serif" fill="#6b778c">23,200</text>
<line x1="170" y1="280.0" x2="1380" y2="280.0" stroke="#b9c5d8" stroke-width="1" />
<text x="156" y="284.0" text-anchor="end" font-size="12" font-family="DejaVu Sans, Arial, sans-serif" fill="#6b778c">34,800</text>
<line x1="170" y1="235.0" x2="1380" y2="235.0" stroke="#b9c5d8" stroke-width="1" />
<text x="156" y="239.0" text-anchor="end" font-size="12" font-family="DejaVu Sans, Arial, sans-serif" fill="#6b778c">46,400</text>
<line x1="170" y1="190.0" x2="1380" y2="190.0" stroke="#b9c5d8" stroke-width="1" />
<text x="156" y="194.0" text-anchor="end" font-size="12" font-family="DejaVu Sans, Arial, sans-serif" fill="#6b778c">58,000</text>
<line x1="170" y1="190" x2="170" y2="415" stroke="#4a5568" stroke-width="2" />
<line x1="170" y1="415" x2="1380" y2="415" stroke="#4a5568" stroke-width="2" />
<line x1="170.0" y1="415" x2="170.0" y2="421" stroke="#4a5568" stroke-width="1" />
<text x="170.0" y="443" text-anchor="middle" font-size="12" font-family="DejaVu Sans, Arial, sans-serif" fill="#4a5568">16p/2c</text>
<line x1="342.9" y1="415" x2="342.9" y2="421" stroke="#4a5568" stroke-width="1" />
<text x="342.9" y="443" text-anchor="middle" font-size="12" font-family="DejaVu Sans, Arial, sans-serif" fill="#4a5568">16p/4c</text>
<line x1="515.7" y1="415" x2="515.7" y2="421" stroke="#4a5568" stroke-width="1" />
<text x="515.7" y="443" text-anchor="middle" font-size="12" font-family="DejaVu Sans, Arial, sans-serif" fill="#4a5568">16p/8c</text>
<line x1="688.6" y1="415" x2="688.6" y2="421" stroke="#4a5568" stroke-width="1" />
<text x="688.6" y="443" text-anchor="middle" font-size="12" font-family="DejaVu Sans, Arial, sans-serif" fill="#4a5568">16p/12c</text>
<line x1="861.4" y1="415" x2="861.4" y2="421" stroke="#4a5568" stroke-width="1" />
<text x="861.4" y="443" text-anchor="middle" font-size="12" font-family="DejaVu Sans, Arial, sans-serif" fill="#4a5568">24p/2c</text>
<line x1="1034.3" y1="415" x2="1034.3" y2="421" stroke="#4a5568" stroke-width="1" />
<text x="1034.3" y="443" text-anchor="middle" font-size="12" font-family="DejaVu Sans, Arial, sans-serif" fill="#4a5568">24p/4c</text>
<line x1="1207.1" y1="415" x2="1207.1" y2="421" stroke="#4a5568" stroke-width="1" />
<text x="1207.1" y="443" text-anchor="middle" font-size="12" font-family="DejaVu Sans, Arial, sans-serif" fill="#4a5568">24p/8c</text>
<line x1="1380.0" y1="415" x2="1380.0" y2="421" stroke="#4a5568" stroke-width="1" />
<text x="1380.0" y="443" text-anchor="middle" font-size="12" font-family="DejaVu Sans, Arial, sans-serif" fill="#4a5568">32p/4c</text>
<text x="775.0" y="473" text-anchor="middle" font-size="16" font-weight="700" font-family="DejaVu Sans, Arial, sans-serif" fill="#2b3442">Producer / Consumer Concurrency</text>
<line x1="170" y1="855.0" x2="1380" y2="855.0" stroke="#b9c5d8" stroke-width="1" />
<text x="156" y="859.0" text-anchor="end" font-size="12" font-family="DejaVu Sans, Arial, sans-serif" fill="#6b778c">0</text>
<line x1="170" y1="810.0" x2="1380" y2="810.0" stroke="#b9c5d8" stroke-width="1" />
<text x="156" y="814.0" text-anchor="end" font-size="12" font-family="DejaVu Sans, Arial, sans-serif" fill="#6b778c">18,000</text>
<line x1="170" y1="765.0" x2="1380" y2="765.0" stroke="#b9c5d8" stroke-width="1" />
<text x="156" y="769.0" text-anchor="end" font-size="12" font-family="DejaVu Sans, Arial, sans-serif" fill="#6b778c">36,000</text>
<line x1="170" y1="720.0" x2="1380" y2="720.0" stroke="#b9c5d8" stroke-width="1" />
<text x="156" y="724.0" text-anchor="end" font-size="12" font-family="DejaVu Sans, Arial, sans-serif" fill="#6b778c">54,000</text>
<line x1="170" y1="675.0" x2="1380" y2="675.0" stroke="#b9c5d8" stroke-width="1" />
<text x="156" y="679.0" text-anchor="end" font-size="12" font-family="DejaVu Sans, Arial, sans-serif" fill="#6b778c">72,000</text>
<line x1="170" y1="630.0" x2="1380" y2="630.0" stroke="#b9c5d8" stroke-width="1" />
<text x="156" y="634.0" text-anchor="end" font-size="12" font-family="DejaVu Sans, Arial, sans-serif" fill="#6b778c">90,000</text>
<line x1="170" y1="630" x2="170" y2="855" stroke="#4a5568" stroke-width="2" />
<line x1="170" y1="855" x2="1380" y2="855" stroke="#4a5568" stroke-width="2" />
<line x1="170.0" y1="855" x2="170.0" y2="861" stroke="#4a5568" stroke-width="1" />
<text x="170.0" y="883" text-anchor="middle" font-size="12" font-family="DejaVu Sans, Arial, sans-serif" fill="#4a5568">4.8</text>
<line x1="291.0" y1="855" x2="291.0" y2="861" stroke="#4a5568" stroke-width="1" />
<text x="291.0" y="883" text-anchor="middle" font-size="12" font-family="DejaVu Sans, Arial, sans-serif" fill="#4a5568">8</text>
<line x1="412.0" y1="855" x2="412.0" y2="861" stroke="#4a5568" stroke-width="1" />
<text x="412.0" y="883" text-anchor="middle" font-size="12" font-family="DejaVu Sans, Arial, sans-serif" fill="#4a5568">12</text>
<line x1="533.0" y1="855" x2="533.0" y2="861" stroke="#4a5568" stroke-width="1" />
<text x="533.0" y="883" text-anchor="middle" font-size="12" font-family="DejaVu Sans, Arial, sans-serif" fill="#4a5568">16</text>
<line x1="654.0" y1="855" x2="654.0" y2="861" stroke="#4a5568" stroke-width="1" />
<text x="654.0" y="883" text-anchor="middle" font-size="12" font-family="DejaVu Sans, Arial, sans-serif" fill="#4a5568">20</text>
<line x1="775.0" y1="855" x2="775.0" y2="861" stroke="#4a5568" stroke-width="1" />
<text x="775.0" y="883" text-anchor="middle" font-size="12" font-family="DejaVu Sans, Arial, sans-serif" fill="#4a5568">24</text>
<line x1="896.0" y1="855" x2="896.0" y2="861" stroke="#4a5568" stroke-width="1" />
<text x="896.0" y="883" text-anchor="middle" font-size="12" font-family="DejaVu Sans, Arial, sans-serif" fill="#4a5568">32</text>
<line x1="1017.0" y1="855" x2="1017.0" y2="861" stroke="#4a5568" stroke-width="1" />
<text x="1017.0" y="883" text-anchor="middle" font-size="12" font-family="DejaVu Sans, Arial, sans-serif" fill="#4a5568">40</text>
<line x1="1138.0" y1="855" x2="1138.0" y2="861" stroke="#4a5568" stroke-width="1" />
<text x="1138.0" y="883" text-anchor="middle" font-size="12" font-family="DejaVu Sans, Arial, sans-serif" fill="#4a5568">48</text>
<line x1="1259.0" y1="855" x2="1259.0" y2="861" stroke="#4a5568" stroke-width="1" />
<text x="1259.0" y="883" text-anchor="middle" font-size="12" font-family="DejaVu Sans, Arial, sans-serif" fill="#4a5568">56</text>
<line x1="1380.0" y1="855" x2="1380.0" y2="861" stroke="#4a5568" stroke-width="1" />
<text x="1380.0" y="883" text-anchor="middle" font-size="12" font-family="DejaVu Sans, Arial, sans-serif" fill="#4a5568">64</text>
<text x="775.0" y="913" text-anchor="middle" font-size="16" font-weight="700" font-family="DejaVu Sans, Arial, sans-serif" fill="#2b3442">Payload Size (MB)</text>
<polyline fill="none" stroke="#4C72B0" stroke-width="3" points="170.0,411.6 342.9,408.3 515.7,403.1 688.6,402.9 861.4,411.2 1034.3,408.5 1207.1,403.2 1380.0,409.0" />
<circle cx="170.0" cy="411.6" r="4" fill="white" stroke="#4C72B0" stroke-width="2" />
<circle cx="342.9" cy="408.3" r="4" fill="white" stroke="#4C72B0" stroke-width="2" />
<circle cx="515.7" cy="403.1" r="4" fill="white" stroke="#4C72B0" stroke-width="2" />
<circle cx="688.6" cy="402.9" r="4" fill="white" stroke="#4C72B0" stroke-width="2" />
<circle cx="861.4" cy="411.2" r="4" fill="white" stroke="#4C72B0" stroke-width="2" />
<circle cx="1034.3" cy="408.5" r="4" fill="white" stroke="#4C72B0" stroke-width="2" />
<circle cx="1207.1" cy="403.2" r="4" fill="white" stroke="#4C72B0" stroke-width="2" />
<circle cx="1380.0" cy="409.0" r="4" fill="white" stroke="#4C72B0" stroke-width="2" />
<polyline fill="none" stroke="#E15759" stroke-width="3" points="170.0,404.3 342.9,401.1 515.7,393.5 688.6,391.1 861.4,405.9 1034.3,403.5 1207.1,395.1 1380.0,402.6" />
<circle cx="170.0" cy="404.3" r="4" fill="white" stroke="#E15759" stroke-width="2" />
<circle cx="342.9" cy="401.1" r="4" fill="white" stroke="#E15759" stroke-width="2" />
<circle cx="515.7" cy="393.5" r="4" fill="white" stroke="#E15759" stroke-width="2" />
<circle cx="688.6" cy="391.1" r="4" fill="white" stroke="#E15759" stroke-width="2" />
<circle cx="861.4" cy="405.9" r="4" fill="white" stroke="#E15759" stroke-width="2" />
<circle cx="1034.3" cy="403.5" r="4" fill="white" stroke="#E15759" stroke-width="2" />
<circle cx="1207.1" cy="395.1" r="4" fill="white" stroke="#E15759" stroke-width="2" />
<circle cx="1380.0" cy="402.6" r="4" fill="white" stroke="#E15759" stroke-width="2" />
<polyline fill="none" stroke="#72B7B2" stroke-width="3" points="170.0,383.4 342.9,282.1 515.7,335.8 688.6,343.5 861.4,345.9 1034.3,250.5 1207.1,319.7 1380.0,278.0" />
<circle cx="170.0" cy="383.4" r="4" fill="white" stroke="#72B7B2" stroke-width="2" />
<circle cx="342.9" cy="282.1" r="4" fill="white" stroke="#72B7B2" stroke-width="2" />
<circle cx="515.7" cy="335.8" r="4" fill="white" stroke="#72B7B2" stroke-width="2" />
<circle cx="688.6" cy="343.5" r="4" fill="white" stroke="#72B7B2" stroke-width="2" />
<circle cx="861.4" cy="345.9" r="4" fill="white" stroke="#72B7B2" stroke-width="2" />
<circle cx="1034.3" cy="250.5" r="4" fill="white" stroke="#72B7B2" stroke-width="2" />
<circle cx="1207.1" cy="319.7" r="4" fill="white" stroke="#72B7B2" stroke-width="2" />
<circle cx="1380.0" cy="278.0" r="4" fill="white" stroke="#72B7B2" stroke-width="2" />
<polyline fill="none" stroke="#F58518" stroke-width="3" points="170.0,255.9 342.9,195.3 515.7,190.0 688.6,247.5 861.4,271.6 1034.3,244.0 1207.1,215.0 1380.0,251.3" />
<circle cx="170.0" cy="255.9" r="4" fill="white" stroke="#F58518" stroke-width="2" />
<circle cx="342.9" cy="195.3" r="4" fill="white" stroke="#F58518" stroke-width="2" />
<circle cx="515.7" cy="190.0" r="4" fill="white" stroke="#F58518" stroke-width="2" />
<circle cx="688.6" cy="247.5" r="4" fill="white" stroke="#F58518" stroke-width="2" />
<circle cx="861.4" cy="271.6" r="4" fill="white" stroke="#F58518" stroke-width="2" />
<circle cx="1034.3" cy="244.0" r="4" fill="white" stroke="#F58518" stroke-width="2" />
<circle cx="1207.1" cy="215.0" r="4" fill="white" stroke="#F58518" stroke-width="2" />
<circle cx="1380.0" cy="251.3" r="4" fill="white" stroke="#F58518" stroke-width="2" />
<polyline fill="none" stroke="#4C72B0" stroke-width="3" points="170.0,847.3 291.0,842.5 412.0,837.3 533.0,827.9 654.0,825.2 775.0,814.7 896.0,749.0 1017.0,726.8 1138.0,717.9 1259.0,710.5 1380.0,732.9" />
<circle cx="170.0" cy="847.3" r="4" fill="white" stroke="#4C72B0" stroke-width="2" />
<circle cx="291.0" cy="842.5" r="4" fill="white" stroke="#4C72B0" stroke-width="2" />
<circle cx="412.0" cy="837.3" r="4" fill="white" stroke="#4C72B0" stroke-width="2" />
<circle cx="533.0" cy="827.9" r="4" fill="white" stroke="#4C72B0" stroke-width="2" />
<circle cx="654.0" cy="825.2" r="4" fill="white" stroke="#4C72B0" stroke-width="2" />
<circle cx="775.0" cy="814.7" r="4" fill="white" stroke="#4C72B0" stroke-width="2" />
<circle cx="896.0" cy="749.0" r="4" fill="white" stroke="#4C72B0" stroke-width="2" />
<circle cx="1017.0" cy="726.8" r="4" fill="white" stroke="#4C72B0" stroke-width="2" />
<circle cx="1138.0" cy="717.9" r="4" fill="white" stroke="#4C72B0" stroke-width="2" />
<circle cx="1259.0" cy="710.5" r="4" fill="white" stroke="#4C72B0" stroke-width="2" />
<circle cx="1380.0" cy="732.9" r="4" fill="white" stroke="#4C72B0" stroke-width="2" />
<polyline fill="none" stroke="#C44E52" stroke-width="3" points="170.0,837.9 291.0,827.5 412.0,815.5 533.0,798.0 654.0,792.6 775.0,777.3 896.0,744.8 1017.0,695.9 1138.0,718.9 1259.0,641.9 1380.0,630.1" />
<circle cx="170.0" cy="837.9" r="4" fill="white" stroke="#C44E52" stroke-width="2" />
<circle cx="291.0" cy="827.5" r="4" fill="white" stroke="#C44E52" stroke-width="2" />
<circle cx="412.0" cy="815.5" r="4" fill="white" stroke="#C44E52" stroke-width="2" />
<circle cx="533.0" cy="798.0" r="4" fill="white" stroke="#C44E52" stroke-width="2" />
<circle cx="654.0" cy="792.6" r="4" fill="white" stroke="#C44E52" stroke-width="2" />
<circle cx="775.0" cy="777.3" r="4" fill="white" stroke="#C44E52" stroke-width="2" />
<circle cx="896.0" cy="744.8" r="4" fill="white" stroke="#C44E52" stroke-width="2" />
<circle cx="1017.0" cy="695.9" r="4" fill="white" stroke="#C44E52" stroke-width="2" />
<circle cx="1138.0" cy="718.9" r="4" fill="white" stroke="#C44E52" stroke-width="2" />
<circle cx="1259.0" cy="641.9" r="4" fill="white" stroke="#C44E52" stroke-width="2" />
<circle cx="1380.0" cy="630.1" r="4" fill="white" stroke="#C44E52" stroke-width="2" />
<polyline fill="none" stroke="#72B7B2" stroke-width="3" points="170.0,835.2 291.0,823.9 412.0,810.9 533.0,799.9 654.0,790.0 775.0,782.4 896.0,769.4 1017.0,793.6 1138.0,790.5 1259.0,782.4 1380.0,770.5" />
<circle cx="170.0" cy="835.2" r="4" fill="white" stroke="#72B7B2" stroke-width="2" />
<circle cx="291.0" cy="823.9" r="4" fill="white" stroke="#72B7B2" stroke-width="2" />
<circle cx="412.0" cy="810.9" r="4" fill="white" stroke="#72B7B2" stroke-width="2" />
<circle cx="533.0" cy="799.9" r="4" fill="white" stroke="#72B7B2" stroke-width="2" />
<circle cx="654.0" cy="790.0" r="4" fill="white" stroke="#72B7B2" stroke-width="2" />
<circle cx="775.0" cy="782.4" r="4" fill="white" stroke="#72B7B2" stroke-width="2" />
<circle cx="896.0" cy="769.4" r="4" fill="white" stroke="#72B7B2" stroke-width="2" />
<circle cx="1017.0" cy="793.6" r="4" fill="white" stroke="#72B7B2" stroke-width="2" />
<circle cx="1138.0" cy="790.5" r="4" fill="white" stroke="#72B7B2" stroke-width="2" />
<circle cx="1259.0" cy="782.4" r="4" fill="white" stroke="#72B7B2" stroke-width="2" />
<circle cx="1380.0" cy="770.5" r="4" fill="white" stroke="#72B7B2" stroke-width="2" />
<polyline fill="none" stroke="#DD8452" stroke-width="3" points="170.0,840.3 291.0,829.1 412.0,809.1 533.0,789.7 654.0,809.4 775.0,738.6 896.0,713.4 1017.0,699.9 1138.0,657.7 1259.0,641.5 1380.0,639.9" />
<circle cx="170.0" cy="840.3" r="4" fill="white" stroke="#DD8452" stroke-width="2" />
<circle cx="291.0" cy="829.1" r="4" fill="white" stroke="#DD8452" stroke-width="2" />
<circle cx="412.0" cy="809.1" r="4" fill="white" stroke="#DD8452" stroke-width="2" />
<circle cx="533.0" cy="789.7" r="4" fill="white" stroke="#DD8452" stroke-width="2" />
<circle cx="654.0" cy="809.4" r="4" fill="white" stroke="#DD8452" stroke-width="2" />
<circle cx="775.0" cy="738.6" r="4" fill="white" stroke="#DD8452" stroke-width="2" />
<circle cx="896.0" cy="713.4" r="4" fill="white" stroke="#DD8452" stroke-width="2" />
<circle cx="1017.0" cy="699.9" r="4" fill="white" stroke="#DD8452" stroke-width="2" />
<circle cx="1138.0" cy="657.7" r="4" fill="white" stroke="#DD8452" stroke-width="2" />
<circle cx="1259.0" cy="641.5" r="4" fill="white" stroke="#DD8452" stroke-width="2" />
<circle cx="1380.0" cy="639.9" r="4" fill="white" stroke="#DD8452" stroke-width="2" />
<line x1="890" y1="149" x2="908" y2="149" stroke="#4C72B0" stroke-width="3" />
<circle cx="896" cy="149" r="3" fill="white" stroke="#4C72B0" stroke-width="2" />
<text x="916" y="154" font-size="12" font-family="DejaVu Sans, Arial, sans-serif" fill="#2b3442">etcd 4.8MB b1/pf0</text>
<line x1="1145" y1="149" x2="1163" y2="149" stroke="#E15759" stroke-width="3" />
<circle cx="1151" cy="149" r="3" fill="white" stroke="#E15759" stroke-width="2" />
<text x="1171" y="154" font-size="12" font-family="DejaVu Sans, Arial, sans-serif" fill="#2b3442">broker 4.8MB b1/pf0</text>
<line x1="890" y1="171" x2="908" y2="171" stroke="#72B7B2" stroke-width="3" />
<circle cx="896" cy="171" r="3" fill="white" stroke="#72B7B2" stroke-width="2" />
<text x="916" y="176" font-size="12" font-family="DejaVu Sans, Arial, sans-serif" fill="#2b3442">etcd 32MB b48/pf48</text>
<line x1="1145" y1="171" x2="1163" y2="171" stroke="#F58518" stroke-width="3" />
<circle cx="1151" cy="171" r="3" fill="white" stroke="#F58518" stroke-width="2" />
<text x="1171" y="176" font-size="12" font-family="DejaVu Sans, Arial, sans-serif" fill="#2b3442">broker 32MB b48/pf48</text>
<line x1="955" y1="592" x2="973" y2="592" stroke="#4C72B0" stroke-width="3" />
<circle cx="961" cy="592" r="3" fill="white" stroke="#4C72B0" stroke-width="2" />
<text x="981" y="597" font-size="12" font-family="DejaVu Sans, Arial, sans-serif" fill="#2b3442">etcd 24p/4c</text>
<line x1="1170" y1="592" x2="1188" y2="592" stroke="#C44E52" stroke-width="3" />
<circle cx="1176" cy="592" r="3" fill="white" stroke="#C44E52" stroke-width="2" />
<text x="1196" y="597" font-size="12" font-family="DejaVu Sans, Arial, sans-serif" fill="#2b3442">broker 24p/4c</text>
<line x1="955" y1="614" x2="973" y2="614" stroke="#72B7B2" stroke-width="3" />
<circle cx="961" cy="614" r="3" fill="white" stroke="#72B7B2" stroke-width="2" />
<text x="981" y="619" font-size="12" font-family="DejaVu Sans, Arial, sans-serif" fill="#2b3442">etcd 16p/4c</text>
<line x1="1170" y1="614" x2="1188" y2="614" stroke="#DD8452" stroke-width="3" />
<circle cx="1176" cy="614" r="3" fill="white" stroke="#DD8452" stroke-width="2" />
<text x="1196" y="619" font-size="12" font-family="DejaVu Sans, Arial, sans-serif" fill="#2b3442">broker 16p/4c</text>
</svg>